<?xml version="1.0" encoding="UTF-8"?>
<svg version="1.1" xmlns="http://www.w3.org/2000/svg" width="102" height="45">
<path d="M0 0 C3.375 -0.125 3.375 -0.125 7 0 C9 2 9 2 9 5 C11.31 4.34 13.62 3.68 16 3 C18.0625 5.0625 18.0625 5.0625 20 8 C19.75 11.8125 19.75 11.8125 19 15 C19.9590625 15.2165625 19.9590625 15.2165625 20.9375 15.4375 C23 16 23 16 24 17 C24.04092937 19.33297433 24.04241723 21.66705225 24 24 C22.02 24.99 22.02 24.99 20 26 C20.0825 27.2375 20.165 28.475 20.25 29.75 C20.2737948 33.10506698 20.19641677 33.75447904 18 36.5 C17.01 37.2425 17.01 37.2425 16 38 C14.02 37.34 12.04 36.68 10 36 C9.62875 36.825 9.2575 37.65 8.875 38.5 C7 41 7 41 3.9375 41.4375 C1 41 1 41 -1 39 C-1.625 36.875 -1.625 36.875 -2 35 C-2.47050781 35.56589844 -2.94101563 36.13179687 -3.42578125 36.71484375 C-4.04839844 37.44832031 -4.67101563 38.18179688 -5.3125 38.9375 C-5.92738281 39.66839844 -6.54226563 40.39929687 -7.17578125 41.15234375 C-9 43 -9 43 -12 44 C-14.0625 42.3125 -14.0625 42.3125 -16 40 C-16.09766173 36.19119238 -15.02188638 35.02402164 -12.4375 32.1875 C-11.633125 31.465625 -10.82875 30.74375 -10 30 C-10.70339566 27.49034386 -10.70339566 27.49034386 -12 25 C-14.04105639 24.11306697 -14.04105639 24.11306697 -16 24 C-16 21.36 -16 18.72 -16 16 C-14.68 15.34 -13.36 14.68 -12 14 C-12.28875 13.113125 -12.5775 12.22625 -12.875 11.3125 C-13 8 -13 8 -10.4375 5 C-7 3 -7 3 -3.625 3.6875 C-2.75875 4.120625 -1.8925 4.55375 -1 5 C-0.67 3.35 -0.34 1.7 0 0 Z M-5 15 C-6.20272819 17.40545638 -6.10071472 18.94996953 -6.0625 21.625 C-6.05347656 22.44226562 -6.04445313 23.25953125 -6.03515625 24.1015625 C-6.02355469 24.72804688 -6.01195312 25.35453125 -6 26 C-2.82730296 24.39499762 -2.82730296 24.39499762 -2.5859375 21.94140625 C-2.48152344 20.76384766 -2.48152344 20.76384766 -2.375 19.5625 C-1.9375 17.1328125 -1.9375 17.1328125 -1 15 C1.86580657 13.30369538 4.73829295 12.58388583 8 12 C7.2884375 13.0828125 7.2884375 13.0828125 6.5625 14.1875 C5.05847097 16.89475226 4.43400818 18.96194275 4 22 C4.99 22.33 5.98 22.66 7 23 C7.2475 22.360625 7.495 21.72125 7.75 21.0625 C9 19 9 19 11.078125 18.37109375 C11.71234375 18.24863281 12.3465625 18.12617188 13 18 C11.6565762 25.44989562 11.6565762 25.44989562 8.6875 27.9375 C6.10854349 28.95708746 3.74196501 29.60829071 1 30 C1.33 30.66 1.66 31.32 2 32 C7.90817226 30.43121094 7.90817226 30.43121094 13.0625 27.3125 C14.47630352 23.82511797 14.74941278 20.6490099 14 17 C12.21306349 13.58055358 10.11231376 11.37077125 6.375 10.125 C0.79696663 9.8314193 -0.84680389 11.20795138 -5 15 Z " fill="#436D8F" transform="translate(16,0)"/>
<path d="M0 0 C1.65 0 3.3 0 5 0 C5 1.65 5 3.3 5 5 C5.66 3.68 6.32 2.36 7 1 C8.65 1.33 10.3 1.66 12 2 C12 2.66 12 3.32 12 4 C13.32 4.66 14.64 5.32 16 6 C16.99 5.34 17.98 4.68 19 4 C21.78758532 4.2090689 23.50703708 4.66002557 25.8125 6.25 C27.39364795 8.58011277 27.22337696 10.24501755 27 13 C25.35 13.33 23.7 13.66 22 14 C24.475 14.495 24.475 14.495 27 15 C27 15.66 27 16.32 27 17 C24.2955743 18.76827834 23.15720512 19.01886461 19.875 18.625 C18.451875 18.315625 18.451875 18.315625 17 18 C14.90349583 17.91720822 14.90349583 17.91720822 12.5625 18.625 C10 19 10 19 7 17 C6.29947539 14.336937 6.22255182 11.75964263 6 9 C5.67 11.97 5.34 14.94 5 18 C3.68 18.33 2.36 18.66 1 19 C0 18 0 18 -0.11352539 16.23413086 C-0.10828857 15.48526611 -0.10305176 14.73640137 -0.09765625 13.96484375 C-0.09443359 13.15595703 -0.09121094 12.34707031 -0.08789062 11.51367188 C-0.07951172 10.66353516 -0.07113281 9.81339844 -0.0625 8.9375 C-0.05798828 8.08349609 -0.05347656 7.22949219 -0.04882812 6.34960938 C-0.03700373 4.23304337 -0.01906769 2.11651315 0 0 Z M12 9 C12 10.65 12 12.3 12 14 C12.66 14 13.32 14 14 14 C14 12.35 14 10.7 14 9 C13.34 9 12.68 9 12 9 Z " fill="#6E757A" transform="translate(73,26)"/>
<path d="M0 0 C1.9375 0.625 1.9375 0.625 4 2 C4.75 5.125 4.75 5.125 5 8 C5.350625 7.484375 5.70125 6.96875 6.0625 6.4375 C8 5 8 5 11.625 5.25 C15 6 15 6 16 7 C16.33 6.34 16.66 5.68 17 5 C19.97 5 22.94 5 26 5 C26 6.65 26 8.3 26 10 C25.01 10 24.02 10 23 10 C23 12.97 23 15.94 23 19 C19.71303767 19.79953138 18.28976808 20.09658936 15 19 C13.576875 19.3403125 13.576875 19.3403125 12.125 19.6875 C9 20 9 20 6.125 18.0625 C5.42375 17.381875 4.7225 16.70125 4 16 C3.34 17.32 2.68 18.64 2 20 C1.01 20 0.02 20 -1 20 C-1.02888514 16.85418577 -1.04675923 13.70840531 -1.0625 10.5625 C-1.07087891 9.66466797 -1.07925781 8.76683594 -1.08789062 7.84179688 C-1.09111328 6.98779297 -1.09433594 6.13378906 -1.09765625 5.25390625 C-1.10551147 4.06776733 -1.10551147 4.06776733 -1.11352539 2.85766602 C-1 1 -1 1 0 0 Z M9 14 C9.33 14.66 9.66 15.32 10 16 C13.465 15.505 13.465 15.505 17 15 C17 14.67 17 14.34 17 14 C14.36 14 11.72 14 9 14 Z " fill="#6C7378" transform="translate(76,3)"/>
<path d="M0 0 C-0.57344937 2.86724686 -0.8614515 3.8614515 -3 6 C-3.6425235 8.06874034 -3.6425235 8.06874034 -4 10 C-0.67187429 9.42618522 0.69842455 8.40619252 3 6 C3.66 6 4.32 6 5 6 C5.33419641 9.59261138 5.21511245 11.59666415 3.5 14.8125 C0.82878678 17.14981156 0.22149546 17.29478036 -3.125 17.5625 C-4.40375 17.706875 -5.6825 17.85125 -7 18 C-8.06674463 19.78775829 -8.06674463 19.78775829 -9 22 C-10.2665397 23.59998115 -11.5828932 25.16136012 -12.9375 26.6875 C-13.62714844 27.47511719 -14.31679687 28.26273438 -15.02734375 29.07421875 C-17 31 -17 31 -20 32 C-21.5625 30.8125 -21.5625 30.8125 -23 29 C-22.68847882 24.60903475 -20.98643961 22.37581028 -18.0625 19.1875 C-17.35222656 18.39730469 -16.64195313 17.60710938 -15.91015625 16.79296875 C-14 15 -14 15 -12 15 C-11.97421875 14.32453125 -11.9484375 13.6490625 -11.921875 12.953125 C-11.45439739 5.6009772 -11.45439739 5.6009772 -9.0625 2.4375 C-5.80150093 0.16468247 -3.9470576 -0.10386994 0 0 Z " fill="#3C698C" transform="translate(24,12)"/>
<path d="M0 0 C0.99 0.66 1.98 1.32 3 2 C2.34 3.32 1.68 4.64 1 6 C-1.97 5.505 -1.97 5.505 -5 5 C-2.133842 7.02059108 -2.133842 7.02059108 0.6875 8.25 C3 10 3 10 3.5625 13 C3 16 3 16 1.5 17.9375 C-2.40936781 19.59898132 -4.8725857 18.99856798 -9 18 C-10.5 15.9375 -10.5 15.9375 -11 14 C-7.67465243 12.89155081 -5.37817425 13.15545644 -2 14 C-4.67642489 11.81509993 -4.67642489 11.81509993 -7 12 C-7 11.34 -7 10.68 -7 10 C-7.99 9.67 -8.98 9.34 -10 9 C-11.125 3.25 -11.125 3.25 -10 1 C-6.47005387 -0.17664871 -3.70544587 -0.19850603 0 0 Z " fill="#6D7479" transform="translate(55,26)"/>
<path d="M0 0 C1.45184478 4.53701494 2.23509196 8.18061476 2 13 C-1.67062491 14.57312496 -3.44302674 15.14440048 -7.375 14.125 C-8.24125 13.75375 -9.1075 13.3825 -10 13 C-10.85691641 9.57233436 -11.01174497 7.37248325 -10 4 C-10 3.01 -10 2.02 -10 1 C-6.1496895 -1.56687367 -4.41430237 -0.83288724 0 0 Z M-6 8 C-6 8.66 -6 9.32 -6 10 C-5.01 10 -4.02 10 -3 10 C-3 9.34 -3 8.68 -3 8 C-3.99 8 -4.98 8 -6 8 Z " fill="#5F676C" transform="translate(66,9)"/>
<path d="M0 0 C6.72 0.72 6.72 0.72 8 2 C8.33 1.34 8.66 0.68 9 0 C11.97 0 14.94 0 18 0 C18 1.65 18 3.3 18 5 C17.01 5 16.02 5 15 5 C15 7.97 15 10.94 15 14 C12.625 14.625 12.625 14.625 10 15 C9.34 14.34 8.68 13.68 8 13 C8.03287583 10.27130593 8.56397771 7.7033382 9 5 C7.68 4.67 6.36 4.34 5 4 C5 4.99 5 5.98 5 7 C3.35 7 1.7 7 0 7 C-0.33 6.01 -0.66 5.02 -1 4 C-1.99 4.495 -1.99 4.495 -3 5 C-1.125 1.125 -1.125 1.125 0 0 Z " fill="#989DA0" transform="translate(84,8)"/>
<path d="M0 0 C1.32 0.33 2.64 0.66 4 1 C4 3.97 4 6.94 4 10 C4.99 10 5.98 10 7 10 C7 7.03 7 4.06 7 1 C8.32 0.67 9.64 0.34 11 0 C11.33 4.62 11.66 9.24 12 14 C7.03301135 14.82783144 4.66671349 15.00001003 0 14 C-0.39180108 12.42074025 -0.76280736 10.83631206 -1.125 9.25 C-1.33382812 8.36828125 -1.54265625 7.4865625 -1.7578125 6.578125 C-2.03088304 3.67124507 -1.53508028 2.43338652 0 0 Z " fill="#858C90" transform="translate(60,30)"/>
<path d="M0 0 C0 1.32 0 2.64 0 4 C-1.65 4 -3.3 4 -5 4 C-5.33 8.95 -5.66 13.9 -6 19 C-7.32 18.67 -8.64 18.34 -10 18 C-10 13.38 -10 8.76 -10 4 C-11.98 4 -13.96 4 -16 4 C-15.67 2.68 -15.34 1.36 -15 0 C-13.25093341 -0.19601608 -11.50068154 -0.38147403 -9.75 -0.5625 C-8.77546875 -0.66691406 -7.8009375 -0.77132813 -6.796875 -0.87890625 C-4.2368648 -0.98974468 -2.41851841 -0.77738092 0 0 Z " fill="#404A4F" transform="translate(59,4)"/>
<path d="M0 0 C2 2 2 2 2.125 4.625 C2.08375 5.40875 2.0425 6.1925 2 7 C0.35 7.33 -1.3 7.66 -3 8 C-1.35 8.33 0.3 8.66 2 9 C2 9.66 2 10.32 2 11 C-0.65728125 12.73745313 -1.89600355 13.00831972 -5.125 12.75 C-8 12 -8 12 -10 10 C-10.54587156 3.99541284 -10.54587156 3.99541284 -8.9375 1.0625 C-5.92115289 -0.59162584 -3.36333392 -0.30575763 0 0 Z " fill="#6F7579" transform="translate(98,32)"/>
<path d="M0 0 C1.65 0.33 3.3 0.66 5 1 C5 6.94 5 12.88 5 19 C3.68 19.33 2.36 19.66 1 20 C-1.20059475 17.79940525 -0.47086432 12.97391201 -0.625 10 C-0.6765625 9.154375 -0.728125 8.30875 -0.78125 7.4375 C-0.82507813 6.633125 -0.86890625 5.82875 -0.9140625 5 C-0.9548291 4.2575 -0.9955957 3.515 -1.03759766 2.75 C-1 1 -1 1 0 0 Z " fill="#4B545A" transform="translate(69,3)"/>
<path d="M0 0 C0.33 1.32 0.66 2.64 1 4 C2.65 4 4.3 4 6 4 C6 3.01 6 2.02 6 1 C7.32 1.33 8.64 1.66 10 2 C10 3.32 10 4.64 10 6 C8.35 6.33 6.7 6.66 5 7 C6.32 7 7.64 7 9 7 C8.67 8.32 8.34 9.64 8 11 C2.74509804 12.31372549 2.74509804 12.31372549 -0.375 11 C-2 9 -2 9 -2.375 5.4375 C-2 2 -2 2 0 0 Z " fill="#5C6469" transform="translate(83,11)"/>
<path d="M0 0 C6.72 0.72 6.72 0.72 8 2 C8.33 1.34 8.66 0.68 9 0 C10.32 0.33 11.64 0.66 13 1 C12.01 1 11.02 1 10 1 C10 5.29 10 9.58 10 14 C9.34 13.67 8.68 13.34 8 13 C8.33 10.36 8.66 7.72 9 5 C7.68 4.67 6.36 4.34 5 4 C5 4.99 5 5.98 5 7 C3.35 7 1.7 7 0 7 C-0.33 6.01 -0.66 5.02 -1 4 C-1.99 4.495 -1.99 4.495 -3 5 C-1.125 1.125 -1.125 1.125 0 0 Z " fill="#A0A4A7" transform="translate(84,8)"/>
<path d="M0 0 C0.99 0 1.98 0 3 0 C3.33 3.96 3.66 7.92 4 12 C-2.84824903 13.40077821 -2.84824903 13.40077821 -6 12 C-6.33 11.01 -6.66 10.02 -7 9 C-4.69 9 -2.38 9 0 9 C0 6.03 0 3.06 0 0 Z " fill="#404A51" transform="translate(68,32)"/>
<path d="M0 0 C0 1.98 0 3.96 0 6 C-0.33 5.34 -0.66 4.68 -1 4 C-1.99 4 -2.98 4 -4 4 C-4.33 4.66 -4.66 5.32 -5 6 C-5 5.01 -5 4.02 -5 3 C-5.66 3 -6.32 3 -7 3 C-6.67 4.65 -6.34 6.3 -6 8 C-3.03 8.33 -0.06 8.66 3 9 C3 9.33 3 9.66 3 10 C-3.24 11.2 -3.24 11.2 -6.375 10.375 C-8 9 -8 9 -8.875 6.625 C-9.01515694 3.68170418 -8.70362108 2.38506951 -7 0 C-3.86650268 -1.04449911 -3.01031744 -0.93423645 0 0 Z " fill="#969B9E" transform="translate(64,13)"/>
<path d="M0 0 C0.33 1.32 0.66 2.64 1 4 C2.65 4 4.3 4 6 4 C6 3.01 6 2.02 6 1 C6.99 1.33 7.98 1.66 9 2 C9 2.99 9 3.98 9 5 C6.36 5 3.72 5 1 5 C1.33 6.32 1.66 7.64 2 9 C0.68 9 -0.64 9 -2 9 C-2.125 5.625 -2.125 5.625 -2 2 C-1.34 1.34 -0.68 0.68 0 0 Z " fill="#2E383F" transform="translate(83,11)"/>
<path d="M0 0 C2.31 0 4.62 0 7 0 C7 0.99 7 1.98 7 3 C5.68 3.33 4.36 3.66 3 4 C2.67 6.64 2.34 9.28 2 12 C1.34 12 0.68 12 0 12 C0 8.04 0 4.08 0 0 Z " fill="#27323A" transform="translate(95,10)"/>
<path d="M0 0 C0.99 0.103125 1.98 0.20625 3 0.3125 C5 3.3125 5 3.3125 5 6.3125 C3.65822982 5.64161491 2.32480134 4.95380071 1 4.25 C-0.93368221 3.17102204 -0.93368221 3.17102204 -3 3.3125 C-3 3.9725 -3 4.6325 -3 5.3125 C-1.35 5.3125 0.3 5.3125 2 5.3125 C2 5.6425 2 5.9725 2 6.3125 C0.02 6.3125 -1.96 6.3125 -4 6.3125 C-4.33 7.3025 -4.66 8.2925 -5 9.3125 C-5.125 5.9375 -5.125 5.9375 -5 2.3125 C-3 0.3125 -3 0.3125 0 0 Z " fill="#2C363E" transform="translate(94,31.6875)"/>
<path d="M0 0 C0 1.32 0 2.64 0 4 C-1.65 4 -3.3 4 -5 4 C-5.33 5.32 -5.66 6.64 -6 8 C-6 6.35 -6 4.7 -6 3 C-4.68 3 -3.36 3 -2 3 C-2 2.34 -2 1.68 -2 1 C-5.96 1 -9.92 1 -14 1 C-14 1.99 -14 2.98 -14 4 C-14.66 3.67 -15.32 3.34 -16 3 C-15.67 2.01 -15.34 1.02 -15 0 C-13.25093341 -0.19601608 -11.50068154 -0.38147403 -9.75 -0.5625 C-8.77546875 -0.66691406 -7.8009375 -0.77132813 -6.796875 -0.87890625 C-4.2368648 -0.98974468 -2.41851841 -0.77738092 0 0 Z " fill="#95999C" transform="translate(59,4)"/>
<path d="M0 0 C0.99 0 1.98 0 3 0 C3 3.96 3 7.92 3 12 C2.01 12 1.02 12 0 12 C0 8.04 0 4.08 0 0 Z " fill="#434E56" transform="translate(73,32)"/>
<path d="M0 0 C0.99 0.66 1.98 1.32 3 2 C3 3.65 3 5.3 3 7 C-0.3 7.33 -3.6 7.66 -7 8 C-6.67 6.35 -6.34 4.7 -6 3 C-4.25 2.25 -4.25 2.25 -2 2 C0.25 3.9375 0.25 3.9375 2 6 C1.34 4.02 0.68 2.04 0 0 Z " fill="#73797D" transform="translate(97,32)"/>
<path d="M0 0 C0.66 0 1.32 0 2 0 C2 0.99 2 1.98 2 3 C3.98 3 5.96 3 8 3 C8.33 2.01 8.66 1.02 9 0 C9 1.98 9 3.96 9 6 C2.84765625 6.09765625 2.84765625 6.09765625 1 6 C0 5 0 5 -0.0625 2.4375 C-0.041875 1.633125 -0.02125 0.82875 0 0 Z " fill="#353F45" transform="translate(57,16)"/>
<path d="M0 0 C1.65 0.33 3.3 0.66 5 1 C5 6.94 5 12.88 5 19 C4.67 19 4.34 19 4 19 C4 13.39 4 7.78 4 2 C0.88667752 2.66868314 0.88667752 2.66868314 -0.1875 5.0625 C-0.455625 5.701875 -0.72375 6.34125 -1 7 C-1.04254356 5.00045254 -1.04080783 2.99958364 -1 1 C-0.67 0.67 -0.34 0.34 0 0 Z " fill="#C8CBCC" transform="translate(69,3)"/>
<path d="M0 0 C1.31371987 0.47581198 2.62594546 0.95575149 3.9375 1.4375 C4.66839844 1.70433594 5.39929687 1.97117188 6.15234375 2.24609375 C8 3 8 3 9 4 C9.04080783 5.99958364 9.04254356 8.00045254 9 10 C8.67 10 8.34 10 8 10 C7.67 8.35 7.34 6.7 7 5 C6.67 6.32 6.34 7.64 6 9 C4 8 4 8 2 5 C2.66 5 3.32 5 4 5 C3.67 4.34 3.34 3.68 3 3 C2.01 2.67 1.02 2.34 0 2 C0 1.34 0 0.68 0 0 Z " fill="#6C7478" transform="translate(49,32)"/>
<path d="M0 0 C1.65 0.33 3.3 0.66 5 1 C5 1.66 5 2.32 5 3 C5.99 3.33 6.98 3.66 8 4 C7.67 4.66 7.34 5.32 7 6 C5.68 5.67 4.36 5.34 3 5 C3 4.01 3 3.02 3 2 C2.34 2 1.68 2 1 2 C1 2.99 1 3.98 1 5 C0.01 4.67 -0.98 4.34 -2 4 C-1.34 2.68 -0.68 1.36 0 0 Z " fill="#ADB1B4" transform="translate(80,27)"/>
<path d="M0 0 C3.37462715 0.54723683 5.08235 1.0549 8 3 C6.68 3 5.36 3 4 3 C4 3.66 4 4.32 4 5 C2.68 4.67 1.36 4.34 0 4 C0 2.68 0 1.36 0 0 Z " fill="#6F777D" transform="translate(45,39)"/>
<path d="M0 0 C0.99 0 1.98 0 3 0 C3.1875 2.8125 3.1875 2.8125 3 6 C2.01 6.99 1.02 7.98 0 9 C0 6.03 0 3.06 0 0 Z " fill="#2D373E" transform="translate(68,32)"/>
<path d="M0 0 C0 0.99 0 1.98 0 3 C-5.75 4.125 -5.75 4.125 -8 3 C-8 2.34 -8 1.68 -8 1 C-2.25 0 -2.25 0 0 0 Z " fill="#434D54" transform="translate(98,41)"/>
<path d="M0 0 C2.64 0 5.28 0 8 0 C8.33 0.66 8.66 1.32 9 2 C7.72125 2.12375 6.4425 2.2475 5.125 2.375 C1.65209064 2.69042399 1.65209064 2.69042399 -1 5 C-0.67 3.35 -0.34 1.7 0 0 Z " fill="#2E3940" transform="translate(47,28)"/>
<path d="M0 0 C2 2 2 2 2 6 C1.01 6.33 0.02 6.66 -1 7 C-1.66 6.67 -2.32 6.34 -3 6 C-2 4 -1 2 0 0 Z " fill="#61696E" transform="translate(70,38)"/>
<path d="M0 0 C1.65 0 3.3 0 5 0 C5 1.32 5 2.64 5 4 C3.35 4 1.7 4 0 4 C0 2.68 0 1.36 0 0 Z " fill="#6E757A" transform="translate(73,26)"/>
<path d="M0 0 C0.66 0.33 1.32 0.66 2 1 C2 2.98 2 4.96 2 7 C1.01 7.495 1.01 7.495 0 8 C0 7.34 0 6.68 0 6 C-0.66 5.67 -1.32 5.34 -2 5 C-1.34 5 -0.68 5 0 5 C-0.2784375 4.0409375 -0.2784375 4.0409375 -0.5625 3.0625 C-0.7790625 2.0415625 -0.7790625 2.0415625 -1 1 C-0.67 0.67 -0.34 0.34 0 0 Z " fill="#333D44" transform="translate(55,36)"/>
<path d="M0 0 C1.65 0 3.3 0 5 0 C5 0.99 5 1.98 5 3 C3.35 3.33 1.7 3.66 0 4 C-0.33 3.34 -0.66 2.68 -1 2 C-0.67 1.34 -0.34 0.68 0 0 Z " fill="#434C53" transform="translate(97,10)"/>
<path d="M0 0 C2.31 0 4.62 0 7 0 C7 0.33 7 0.66 7 1 C5.02 1 3.04 1 1 1 C1.33 1.99 1.66 2.98 2 4 C1.01 4.33 0.02 4.66 -1 5 C-0.67 3.35 -0.34 1.7 0 0 Z " fill="#6A8499" transform="translate(16,0)"/>
<path d="" fill="#F7F7F7" transform="translate(0,0)"/>
</svg>
