<?xml version="1.0" encoding="UTF-8"?>
<svg version="1.1" xmlns="http://www.w3.org/2000/svg" width="58" height="41">
<path d="M0 0 C1.65 0.33 3.3 0.66 5 1 C5 1.99 5 2.98 5 4 C5.66 4.33 6.32 4.66 7 5 C7 3.68 7 2.36 7 1 C8.32 1 9.64 1 11 1 C11 2.32 11 3.64 11 5 C12.65614657 5.38218767 14.32457024 5.71395102 16 6 C16.33 5.67 16.66 5.34 17 5 C23.34769165 4.52980062 23.34769165 4.52980062 25.70703125 6.23046875 C27.35157973 8.48116501 27.3716919 9.7986938 27.3125 12.5625 C27.30863281 13.34753906 27.30476563 14.13257813 27.30078125 14.94140625 C27 17 27 17 25 19 C23.125 19.1953125 23.125 19.1953125 21 19.125 C19.948125 19.09792969 19.948125 19.09792969 18.875 19.0703125 C18.25625 19.04710938 17.6375 19.02390625 17 19 C15.1457163 19 13.29149841 19.02997371 11.4375 19.0625 C8 19 8 19 7 18 C6.92820036 16.48071962 6.91607993 14.95832518 6.9375 13.4375 C6.94652344 12.61121094 6.95554687 11.78492188 6.96484375 10.93359375 C6.97644531 10.29550781 6.98804688 9.65742188 7 9 C6.34 9 5.68 9 5 9 C5 12.3 5 15.6 5 19 C3.35 19 1.7 19 0 19 C-0.19425873 16.20865148 -0.38069517 13.41716313 -0.5625 10.625 C-0.61857422 9.8309375 -0.67464844 9.036875 -0.73242188 8.21875 C-1.11328125 2.2265625 -1.11328125 2.2265625 0 0 Z M14 7 C15 9 15 9 15 9 Z M11 9 C11 10.65 11 12.3 11 14 C11.99 14.33 12.98 14.66 14 15 C14 13.02 14 11.04 14 9 C13.01 9 12.02 9 11 9 Z M19 14 C23 15 23 15 23 15 Z " fill="#2D353A" transform="translate(29,22)"/>
<path d="M0 0 C2.0783269 0.06867016 2.0783269 0.06867016 4.375 -0.5 C7 -1 7 -1 11 -1 C11 0.65 11 2.3 11 4 C10.01 4 9.02 4 8 4 C7.67 7.3 7.34 10.6 7 14 C5.68 14 4.36 14 3 14 C2.67 12.35 2.34 10.7 2 9 C1.87625 9.639375 1.7525 10.27875 1.625 10.9375 C1.41875 11.618125 1.2125 12.29875 1 13 C-1.84083641 14.42041821 -3.85477278 14.31452272 -7 14 C-9.375 12.4375 -9.375 12.4375 -11 10 C-11.5625 6.5 -11.5625 6.5 -11 3 C-7.4476484 -1.17923717 -5.15594706 -1.37491922 0 0 Z " fill="#32393E" transform="translate(47,5)"/>
<path d="M0 0 C3.3 0 6.6 0 10 0 C10 6.27 10 12.54 10 19 C6.7 19 3.4 19 0 19 C0 12.73 0 6.46 0 0 Z " fill="#383C3F" transform="translate(25,0)"/>
<path d="M0 0 C2.375 2 2.375 2 4 4 C1.64561267 5.42944945 0.51967567 6.08661261 -2.25 5.625 C-2.8275 5.41875 -3.405 5.2125 -4 5 C-1.14220809 7.02876119 -1.14220809 7.02876119 1.6875 8.1875 C4 10 4 10 4.5 13.5625 C4.335 14.696875 4.17 15.83125 4 17 C1.00261059 18.99825961 0.36652492 19.27550398 -3 19.25 C-4.0209375 19.25773437 -4.0209375 19.25773437 -5.0625 19.265625 C-7 19 -7 19 -10 17 C-9.34 15.68 -8.68 14.36 -8 13 C-5.69 13.66 -3.38 14.32 -1 15 C-2.49988939 12.00022122 -5.05159126 11.44411857 -8 10 C-8.66 9.34 -9.32 8.68 -10 8 C-9.8125 5 -9.8125 5 -9 2 C-5.50875983 -0.32749345 -4.10777749 -0.50299316 0 0 Z " fill="#2C3439" transform="translate(10,22)"/>
<path d="M0 0 C3.4375 0.875 3.4375 0.875 4.64453125 2.6015625 C5.56766861 5.24819275 5.63608265 7.32885912 5.5625 10.125 C5.54445313 11.01703125 5.52640625 11.9090625 5.5078125 12.828125 C5.47300781 13.84132813 5.47300781 13.84132813 5.4375 14.875 C3.64656809 14.95586147 1.85460372 15.01412702 0.0625 15.0625 C-1.43410156 15.11470703 -1.43410156 15.11470703 -2.9609375 15.16796875 C-3.81945312 15.07128906 -4.67796875 14.97460938 -5.5625 14.875 C-8.14925384 10.99486924 -7.36080401 9.34550246 -6.5625 4.875 C-6.5625 3.885 -6.5625 2.895 -6.5625 1.875 C-3.5625 -0.125 -3.5625 -0.125 0 0 Z M-0.5625 8.875 C-1.2225 9.535 -1.8825 10.195 -2.5625 10.875 C-1.5725 10.875 -0.5825 10.875 0.4375 10.875 C0.1075 10.215 -0.2225 9.555 -0.5625 8.875 Z " fill="#2F363B" transform="translate(18.5625,4.125)"/>
<path d="M0 0 C1.65 0 3.3 0 5 0 C5 3.3 5 6.6 5 10 C5.66 9.67 6.32 9.34 7 9 C7.46651207 6.87423218 7.46651207 6.87423218 7.625 4.4375 C7.69976563 3.61121094 7.77453125 2.78492188 7.8515625 1.93359375 C7.90054687 1.29550781 7.94953125 0.65742188 8 0 C9.65 0 11.3 0 13 0 C13 4.62 13 9.24 13 14 C4.6015625 14.1953125 4.6015625 14.1953125 2 14 C0 12 0 12 -0.1953125 9.1796875 C-0.17210937 8.08914062 -0.14890625 6.99859375 -0.125 5.875 C-0.10695313 4.77929688 -0.08890625 3.68359375 -0.0703125 2.5546875 C-0.04710937 1.71164063 -0.02390625 0.86859375 0 0 Z " fill="#2E363B" transform="translate(15,27)"/>
<path d="M0 0 C4.95 0 9.9 0 15 0 C15 1.32 15 2.64 15 4 C13.35 4 11.7 4 10 4 C10 8.95 10 13.9 10 19 C8.35 19 6.7 19 5 19 C5 14.05 5 9.1 5 4 C3.35 4 1.7 4 0 4 C0 2.68 0 1.36 0 0 Z " fill="#2A3237" transform="translate(0,0)"/>
<path d="M0 0 C1.32 0 2.64 0 4 0 C4 6.27 4 12.54 4 19 C2.68 19 1.36 19 0 19 C0 12.73 0 6.46 0 0 Z " fill="#2B3439" transform="translate(25,0)"/>
</svg>
