<?xml version="1.0" encoding="UTF-8"?>
<svg version="1.1" xmlns="http://www.w3.org/2000/svg" width="40" height="43">
<path d="M0 0 C3.375 -0.125 3.375 -0.125 7 0 C9 2 9 2 9 5 C11.31 4.34 13.62 3.68 16 3 C18.0625 5.0625 18.0625 5.0625 20 8 C19.75 11.8125 19.75 11.8125 19 15 C19.9590625 15.2165625 19.9590625 15.2165625 20.9375 15.4375 C23 16 23 16 24 17 C24.04092937 19.33297433 24.04241723 21.66705225 24 24 C22.02 24.99 22.02 24.99 20 26 C20.0825 27.2375 20.165 28.475 20.25 29.75 C20.2737948 33.10506698 20.19641677 33.75447904 18 36.5 C17.01 37.2425 17.01 37.2425 16 38 C14.02 37.34 12.04 36.68 10 36 C9.62875 36.825 9.2575 37.65 8.875 38.5 C7 41 7 41 3.9375 41.4375 C1 41 1 41 -1 39 C-1.33 37.68 -1.66 36.36 -2 35 C-4.31 37.64 -6.62 40.28 -9 43 C-14 42 -14 42 -16 40 C-15.89834392 36.23872509 -15.00920966 35.01010816 -12.4375 32.1875 C-11.633125 31.465625 -10.82875 30.74375 -10 30 C-10.70339566 27.49034386 -10.70339566 27.49034386 -12 25 C-14.04105639 24.11306697 -14.04105639 24.11306697 -16 24 C-16 21.36 -16 18.72 -16 16 C-14.68 15.34 -13.36 14.68 -12 14 C-12.28875 13.113125 -12.5775 12.22625 -12.875 11.3125 C-13 8 -13 8 -10.4375 5 C-7 3 -7 3 -3.625 3.6875 C-2.75875 4.120625 -1.8925 4.55375 -1 5 C-0.67 3.35 -0.34 1.7 0 0 Z M-5 15 C-6.20272819 17.40545638 -6.10071472 18.94996953 -6.0625 21.625 C-6.05347656 22.44226562 -6.04445313 23.25953125 -6.03515625 24.1015625 C-6.02355469 24.72804688 -6.01195312 25.35453125 -6 26 C-2.82730296 24.39499762 -2.82730296 24.39499762 -2.5859375 21.94140625 C-2.48152344 20.76384766 -2.48152344 20.76384766 -2.375 19.5625 C-1.9375 17.1328125 -1.9375 17.1328125 -1 15 C1.86580657 13.30369538 4.73829295 12.58388583 8 12 C7.2884375 13.0828125 7.2884375 13.0828125 6.5625 14.1875 C5.05847097 16.89475226 4.43400818 18.96194275 4 22 C4.99 22.33 5.98 22.66 7 23 C7.2475 22.360625 7.495 21.72125 7.75 21.0625 C9 19 9 19 11.078125 18.37109375 C11.71234375 18.24863281 12.3465625 18.12617188 13 18 C11.6565762 25.44989562 11.6565762 25.44989562 8.6875 27.9375 C6.10854349 28.95708746 3.74196501 29.60829071 1 30 C1.33 30.66 1.66 31.32 2 32 C7.90817226 30.43121094 7.90817226 30.43121094 13.0625 27.3125 C14.47630352 23.82511797 14.74941278 20.6490099 14 17 C12.21306349 13.58055358 10.11231376 11.37077125 6.375 10.125 C0.79696663 9.8314193 -0.84680389 11.20795138 -5 15 Z " fill="#436D8F" transform="translate(16,0)"/>
<path d="M0 0 C-0.57344937 2.86724686 -0.8614515 3.8614515 -3 6 C-3.6425235 8.06874034 -3.6425235 8.06874034 -4 10 C-0.67187429 9.42618522 0.69842455 8.40619252 3 6 C3.66 6 4.32 6 5 6 C5.33419641 9.59261138 5.21511245 11.59666415 3.5 14.8125 C0.82878678 17.14981156 0.22149546 17.29478036 -3.125 17.5625 C-4.40375 17.706875 -5.6825 17.85125 -7 18 C-8.07825961 19.77929614 -8.07825961 19.77929614 -9 22 C-10.2163002 23.6458985 -11.49167918 25.24923406 -12.8125 26.8125 C-13.47894531 27.62332031 -14.14539063 28.43414062 -14.83203125 29.26953125 C-17 31 -17 31 -19.76171875 30.76171875 C-20.50035156 30.51035156 -21.23898438 30.25898437 -22 30 C-22.76953125 27.83203125 -22.76953125 27.83203125 -23 25 C-21.19921875 22.32421875 -21.19921875 22.32421875 -18.6875 19.6875 C-17.86636719 18.80449219 -17.04523437 17.92148437 -16.19921875 17.01171875 C-14 15 -14 15 -12 15 C-11.97421875 14.32453125 -11.9484375 13.6490625 -11.921875 12.953125 C-11.45439739 5.6009772 -11.45439739 5.6009772 -9.0625 2.4375 C-5.80150093 0.16468247 -3.9470576 -0.10386994 0 0 Z " fill="#3C688C" transform="translate(24,12)"/>
<path d="M0 0 C2.31 0 4.62 0 7 0 C7 0.33 7 0.66 7 1 C5.02 1 3.04 1 1 1 C1.33 1.99 1.66 2.98 2 4 C1.01 4.33 0.02 4.66 -1 5 C-0.67 3.35 -0.34 1.7 0 0 Z " fill="#6A8499" transform="translate(16,0)"/>
<path d="" fill="#F7F7F7" transform="translate(0,0)"/>
</svg>
